<svg xmlns="http://www.w3.org/2000/svg" viewBox="0 0 760 520" role="img" aria-labelledby="title desc">
<title id="title">AI evaluation and control flow</title><desc id="desc">A controlled AI workflow connects inputs, inference, evaluation, human ownership and operational feedback.</desc>
<style>
.trace{stroke-dasharray:10 10;animation:trace 8s linear infinite}.score{animation:score 4s ease-in-out infinite}
@keyframes trace{to{stroke-dashoffset:-80}}@keyframes score{50%{opacity:1;transform:scale(1.05)}}@media(prefers-reduced-motion:reduce){.trace,.score{animation:none}}
</style>
<rect width="760" height="520" rx="28" fill="#f7f7f4"/>
<path class="trace" d="M105 260H655" fill="none" stroke="#5b61d6" stroke-width="2"/>
<g fill="#ffffff" stroke="#c9cdd3"><rect x="62" y="198" width="132" height="124" rx="18"/><rect x="238" y="198" width="132" height="124" rx="18"/><rect x="414" y="198" width="132" height="124" rx="18"/><rect x="590" y="198" width="108" height="124" rx="18"/></g>
<g fill="#17181a" font-family="Inter,Arial,sans-serif" text-anchor="middle"><text x="128" y="245" font-size="12" font-weight="700">INPUT</text><text x="128" y="269" font-size="9" fill="#5b61d6">data + context</text><text x="304" y="245" font-size="12" font-weight="700">INFERENCE</text><text x="304" y="269" font-size="9" fill="#5b61d6">bounded execution</text><text x="480" y="245" font-size="12" font-weight="700">EVALUATE</text><text x="480" y="269" font-size="9" fill="#5b61d6">quality + cost</text><text x="644" y="245" font-size="12" font-weight="700">OWNER</text><text x="644" y="269" font-size="9" fill="#5b61d6">human decision</text></g>
<g fill="#5b61d6"><circle cx="216" cy="260" r="4"/><circle cx="392" cy="260" r="4"/><circle cx="568" cy="260" r="4"/></g>
<rect x="239" y="367" width="282" height="74" rx="16" fill="#ffffff" stroke="#c9cdd3"/><text x="380" y="396" fill="#17181a" font-family="Inter,Arial,sans-serif" font-size="11" font-weight="700" text-anchor="middle">OPERATIONAL FEEDBACK</text><text x="380" y="419" fill="#5b61d6" font-family="Inter,Arial,sans-serif" font-size="9" text-anchor="middle">traceability · drift · cost · failure modes</text>
<path d="M644 322C640 378 566 404 521 404M239 404C180 404 128 369 128 322" fill="none" stroke="#5b61d6" stroke-width="2"/>
<circle class="score" cx="480" cy="176" r="18" fill="#ffffff" stroke="#5b61d6" opacity=".7"/><text x="480" y="180" fill="#17181a" font-family="Inter,Arial,sans-serif" font-size="9" font-weight="800" text-anchor="middle">EVAL</text>
</svg>